#N canvas 0 2 1920 976 16;
#X declare -lib mrpeach;
#X declare -path patch_editor_abs;
#X obj 26 -255 unpackOSC;
#X obj 26 -313 udpreceive 12000;
#X floatatom 26 -140 10 0 0 0 - - -;
#X obj 285 -199 print;
#X obj 437 -310 loadbang;
#X obj 437 -253 import mrpeach;
#X obj 26 -194 route /Exchangerate;
#X text 25 -343 Listening to OSC... (Processing);
#X text 437 -347 Import the library needed for OSC and the sample when
the patch is opened;
#X obj 74 414 *~;
#X obj 57 482 dac~;
#X obj 26 88 t b f;
#X obj 26 142 bng 30 250 50 0 empty empty empty 17 7 0 10 -262144 -1
-1;
#X text 7 -373 Sandie Vervondel 3Ba Multec AT 2018-2019;
#X floatatom 73 239 10 0 0 0 - - -;
#X obj 73 191 f;
#X obj 252 8 vsl 25 250 0.01 0.5 1 0 empty empty empty 0 -9 0 10 -262144
-1 -1 0 1;
#X floatatom 252 284 5 0 0 0 - - -;
#X msg 252 320 \$1 25;
#X obj 252 360 line~;
#X msg 72 280 \$1 25;
#X obj 72 320 line~;
#X floatatom 75 -32 10 0 0 0 - - -;
#X obj 73 362 main;
#X obj 682 381 writesf~;
#X msg 682 334 open sonification.wav \, start;
#X msg 649 294 stop;
#X obj 75 -83 * 0.01;
#X connect 0 0 3 0;
#X connect 0 0 6 0;
#X connect 1 0 0 0;
#X connect 2 0 27 0;
#X connect 4 0 5 0;
#X connect 6 0 2 0;
#X connect 9 0 10 0;
#X connect 9 0 10 1;
#X connect 9 0 24 0;
#X connect 11 0 12 0;
#X connect 11 1 15 0;
#X connect 12 0 15 0;
#X connect 14 0 20 0;
#X connect 15 0 14 0;
#X connect 16 0 17 0;
#X connect 17 0 18 0;
#X connect 18 0 19 0;
#X connect 19 0 9 1;
#X connect 20 0 21 0;
#X connect 21 0 23 0;
#X connect 22 0 11 0;
#X connect 23 0 9 0;
#X connect 25 0 24 0;
#X connect 26 0 24 0;
#X connect 27 0 22 0;
